<svg xmlns="http://www.w3.org/2000/svg" viewBox="0 0 198.74 198.74">
  <path d="M197.4 42.48a7.5 7.5 0 0 0-10.44-1.89l-23.29 16.16a7.5 7.5 0 0 0-3.21 6.49 101 101 0 0 1 .1 4.42c0 47.6-36.23 96.84-96.84 96.84a96.44 96.44 0 0 1-35.85-6.89l35.94-10.05a7.5 7.5 0 1 0-4.04-14.45L5.48 148.3a7.5 7.5 0 0 0-2.03 13.54 111.46 111.46 0 0 0 60.27 17.66c42.05 0 68.4-19.87 83.09-36.54 18.27-20.73 28.74-48.17 28.74-75.3v-.9l19.96-13.84a7.5 7.5 0 0 0 1.89-10.44zM16.55 40.14l75.59 38.31a7.48 7.48 0 0 0 10.7-8.38 29.2 29.2 0 0 1 49.71-26.62 7.5 7.5 0 0 0 8.03 1.92l23.33-8.48a7.5 7.5 0 1 0-5.12-14.1l-18.98 6.9a44.4 44.4 0 0 0-28.55-10.45 44.23 44.23 0 0 0-43.98 39.94L23.34 26.76a7.5 7.5 0 1 0-6.79 13.38zm-3.86 44.91l16.6 4.59a7.48 7.48 0 0 0 9.23-5.24 7.5 7.5 0 0 0-5.23-9.22l-16.6-4.59a7.5 7.5 0 0 0-4 14.46zm14.56 22.33a7.5 7.5 0 1 0 .57 14.99l16.56-.63a7.5 7.5 0 0 0-.57-15l-16.56.64z"/>
</svg>
